<svg xmlns="http://www.w3.org/2000/svg" viewBox="0 0 48 48" role="img" aria-label="GitHub">
  <rect width="48" height="48" rx="10" fill="#111827"/>
  <path fill="#fff" d="M24 9.5c-8 0-14.5 6.5-14.5 14.5 0 6.4 4.1 11.8 9.8 13.7.7.1 1-.3 1-.7v-2.5c-4 .9-4.8-1.7-4.8-1.7-.7-1.6-1.6-2-1.6-2-1.3-.9.1-.9.1-.9 1.4.1 2.2 1.5 2.2 1.5 1.3 2.2 3.4 1.6 4.2 1.2.1-.9.5-1.6.9-1.9-3.2-.4-6.5-1.6-6.5-7.1 0-1.6.6-2.9 1.5-3.9-.2-.4-.6-1.9.1-3.9 0 0 1.2-.4 4 1.5 1.2-.3 2.4-.5 3.6-.5s2.5.2 3.6.5c2.8-1.9 4-1.5 4-1.5.8 2 .3 3.5.2 3.9.9 1 1.5 2.3 1.5 3.9 0 5.5-3.4 6.7-6.6 7.1.5.4 1 1.3 1 2.7V37c0 .4.3.9 1 .7 5.7-1.9 9.8-7.3 9.8-13.7 0-8-6.5-14.5-14.5-14.5z"/>
</svg>
