<svg xmlns="http://www.w3.org/2000/svg" viewBox="0 0 48 48" role="img" aria-label="Instagram">
  <defs>
    <linearGradient id="ig" x1="8" y1="40" x2="40" y2="8" gradientUnits="userSpaceOnUse">
      <stop stop-color="#F58529"/>
      <stop offset=".45" stop-color="#DD2A7B"/>
      <stop offset="1" stop-color="#515BD4"/>
    </linearGradient>
  </defs>
  <rect width="48" height="48" rx="10" fill="url(#ig)"/>
  <path fill="#fff" d="M24 16.8a7.2 7.2 0 1 0 0 14.4 7.2 7.2 0 0 0 0-14.4zm0 11.8a4.6 4.6 0 1 1 0-9.2 4.6 4.6 0 0 1 0 9.2z"/>
  <path fill="#fff" d="M31.5 15.4a1.7 1.7 0 1 0 0 3.4 1.7 1.7 0 0 0 0-3.4z"/>
  <path fill="#fff" d="M18.1 11h11.8A7.1 7.1 0 0 1 37 18.1v11.8a7.1 7.1 0 0 1-7.1 7.1H18.1a7.1 7.1 0 0 1-7.1-7.1V18.1a7.1 7.1 0 0 1 7.1-7.1zm0 2.8a4.3 4.3 0 0 0-4.3 4.3v11.8a4.3 4.3 0 0 0 4.3 4.3h11.8a4.3 4.3 0 0 0 4.3-4.3V18.1a4.3 4.3 0 0 0-4.3-4.3H18.1z"/>
</svg>
