<svg xmlns="http://www.w3.org/2000/svg" viewBox="0 0 48 48" role="img" aria-label="WhatsApp">
  <rect width="48" height="48" rx="10" fill="#25D366"/>
  <path fill="#fff" d="M24.2 11.5A12.1 12.1 0 0 0 14 30.2L12.5 36l5.9-1.5a12.1 12.1 0 1 0 5.8-23zm0 2.7a9.4 9.4 0 0 1 0 18.8 9.3 9.3 0 0 1-4.8-1.3l-.4-.2-3.1.8.8-3-.3-.5a9.4 9.4 0 0 1 7.8-14.6zm-3.4 5.1c-.2-.5-.5-.5-.7-.5h-.6c-.2 0-.5.1-.8.4-.3.3-1 1-1 2.4s1.1 2.8 1.2 3c.2.2 2.1 3.3 5.2 4.5 2.6 1 3.1.8 3.7.7.6-.1 1.8-.7 2-1.4.3-.7.3-1.3.2-1.4-.1-.2-.3-.2-.7-.4l-2.1-1c-.3-.1-.6-.2-.8.2-.2.3-.9 1.1-1.1 1.3-.2.2-.4.2-.8.1-.4-.2-1.5-.6-2.8-1.8-1-1-1.7-2.1-1.9-2.4-.2-.4 0-.5.1-.7l.5-.6c.2-.2.2-.4.4-.6.1-.2.1-.5 0-.7l-1-2.1z"/>
</svg>
